<mxfile host="app.diagrams.net" modified="2023-09-20T13:39:39.740Z" agent="Mozilla/5.0 (Windows NT 10.0; Win64; x64) AppleWebKit/537.36 (KHTML, like Gecko) Chrome/116.0.0.0 Safari/537.36" etag="O0IGNy4E1-trohQqagZd" version="21.6.3" type="device">
  <diagram name="Página-1" id="lTgYDMpTRAQ7yyZF5i22">
    <mxGraphModel dx="1136" dy="619" grid="1" gridSize="10" guides="1" tooltips="1" connect="1" arrows="1" fold="1" page="1" pageScale="1" pageWidth="827" pageHeight="1169" math="0" shadow="0">
      <root>
        <mxCell id="0" />
        <mxCell id="1" parent="0" />
        <mxCell id="sVag5zWtKBU5LrryErx4-9" style="rounded=0;orthogonalLoop=1;jettySize=auto;html=1;endArrow=none;endFill=0;" edge="1" parent="1" source="sVag5zWtKBU5LrryErx4-4" target="sVag5zWtKBU5LrryErx4-5">
          <mxGeometry relative="1" as="geometry" />
        </mxCell>
        <mxCell id="sVag5zWtKBU5LrryErx4-10" style="rounded=0;orthogonalLoop=1;jettySize=auto;html=1;endArrow=none;endFill=0;" edge="1" parent="1" source="sVag5zWtKBU5LrryErx4-30" target="sVag5zWtKBU5LrryErx4-6">
          <mxGeometry relative="1" as="geometry" />
        </mxCell>
        <mxCell id="sVag5zWtKBU5LrryErx4-11" style="rounded=0;orthogonalLoop=1;jettySize=auto;html=1;endArrow=none;endFill=0;" edge="1" parent="1" source="sVag5zWtKBU5LrryErx4-30" target="sVag5zWtKBU5LrryErx4-7">
          <mxGeometry relative="1" as="geometry" />
        </mxCell>
        <mxCell id="sVag5zWtKBU5LrryErx4-12" style="rounded=0;orthogonalLoop=1;jettySize=auto;html=1;endArrow=none;endFill=0;" edge="1" parent="1" source="sVag5zWtKBU5LrryErx4-30" target="sVag5zWtKBU5LrryErx4-8">
          <mxGeometry relative="1" as="geometry" />
        </mxCell>
        <mxCell id="sVag5zWtKBU5LrryErx4-4" value="Cliente" style="shape=umlActor;verticalLabelPosition=bottom;verticalAlign=top;html=1;" vertex="1" parent="1">
          <mxGeometry x="60" y="250" width="30" height="60" as="geometry" />
        </mxCell>
        <mxCell id="sVag5zWtKBU5LrryErx4-5" value="Pesquisar Livros" style="ellipse;whiteSpace=wrap;html=1;" vertex="1" parent="1">
          <mxGeometry x="160" y="65" width="140" height="70" as="geometry" />
        </mxCell>
        <mxCell id="sVag5zWtKBU5LrryErx4-14" value="&amp;lt;&amp;lt;include&amp;gt;&amp;gt;" style="edgeStyle=orthogonalEdgeStyle;rounded=0;orthogonalLoop=1;jettySize=auto;html=1;curved=1;endArrow=classic;endFill=1;dashed=1;" edge="1" parent="1" source="sVag5zWtKBU5LrryErx4-6" target="sVag5zWtKBU5LrryErx4-5">
          <mxGeometry relative="1" as="geometry">
            <Array as="points">
              <mxPoint x="350" y="210" />
              <mxPoint x="350" y="110" />
            </Array>
          </mxGeometry>
        </mxCell>
        <mxCell id="sVag5zWtKBU5LrryErx4-17" style="edgeStyle=orthogonalEdgeStyle;rounded=0;orthogonalLoop=1;jettySize=auto;html=1;curved=1;endArrow=classic;endFill=1;dashed=1;" edge="1" parent="1" source="sVag5zWtKBU5LrryErx4-6" target="sVag5zWtKBU5LrryErx4-7">
          <mxGeometry relative="1" as="geometry">
            <Array as="points">
              <mxPoint x="350" y="240" />
              <mxPoint x="350" y="325" />
            </Array>
          </mxGeometry>
        </mxCell>
        <mxCell id="sVag5zWtKBU5LrryErx4-6" value="Requisição do Livro&lt;br&gt;" style="ellipse;whiteSpace=wrap;html=1;" vertex="1" parent="1">
          <mxGeometry x="160" y="185" width="140" height="70" as="geometry" />
        </mxCell>
        <mxCell id="sVag5zWtKBU5LrryErx4-7" value="Renovar Requisição" style="ellipse;whiteSpace=wrap;html=1;" vertex="1" parent="1">
          <mxGeometry x="160" y="305" width="140" height="70" as="geometry" />
        </mxCell>
        <mxCell id="sVag5zWtKBU5LrryErx4-8" value="Devolver Livros" style="ellipse;whiteSpace=wrap;html=1;" vertex="1" parent="1">
          <mxGeometry x="160" y="425" width="140" height="70" as="geometry" />
        </mxCell>
        <mxCell id="sVag5zWtKBU5LrryErx4-23" style="rounded=0;orthogonalLoop=1;jettySize=auto;html=1;endArrow=none;endFill=0;" edge="1" parent="1" source="sVag5zWtKBU5LrryErx4-19" target="sVag5zWtKBU5LrryErx4-20">
          <mxGeometry relative="1" as="geometry" />
        </mxCell>
        <mxCell id="sVag5zWtKBU5LrryErx4-24" style="rounded=0;orthogonalLoop=1;jettySize=auto;html=1;endArrow=none;endFill=0;" edge="1" parent="1" source="sVag5zWtKBU5LrryErx4-19" target="sVag5zWtKBU5LrryErx4-21">
          <mxGeometry relative="1" as="geometry" />
        </mxCell>
        <mxCell id="sVag5zWtKBU5LrryErx4-25" style="rounded=0;orthogonalLoop=1;jettySize=auto;html=1;endArrow=none;endFill=0;" edge="1" parent="1" source="sVag5zWtKBU5LrryErx4-19" target="sVag5zWtKBU5LrryErx4-22">
          <mxGeometry relative="1" as="geometry" />
        </mxCell>
        <mxCell id="sVag5zWtKBU5LrryErx4-28" style="rounded=0;orthogonalLoop=1;jettySize=auto;html=1;endArrow=none;endFill=0;" edge="1" parent="1" source="sVag5zWtKBU5LrryErx4-19" target="sVag5zWtKBU5LrryErx4-7">
          <mxGeometry relative="1" as="geometry" />
        </mxCell>
        <mxCell id="sVag5zWtKBU5LrryErx4-29" style="rounded=0;orthogonalLoop=1;jettySize=auto;html=1;endArrow=none;endFill=0;" edge="1" parent="1" source="sVag5zWtKBU5LrryErx4-19" target="sVag5zWtKBU5LrryErx4-8">
          <mxGeometry relative="1" as="geometry" />
        </mxCell>
        <mxCell id="sVag5zWtKBU5LrryErx4-19" value="Bibliotecário" style="shape=umlActor;verticalLabelPosition=bottom;verticalAlign=top;html=1;" vertex="1" parent="1">
          <mxGeometry x="750" y="245" width="30" height="60" as="geometry" />
        </mxCell>
        <mxCell id="sVag5zWtKBU5LrryErx4-20" value="Gerir Clientes" style="ellipse;whiteSpace=wrap;html=1;" vertex="1" parent="1">
          <mxGeometry x="660" y="60" width="140" height="70" as="geometry" />
        </mxCell>
        <mxCell id="sVag5zWtKBU5LrryErx4-26" style="rounded=0;orthogonalLoop=1;jettySize=auto;html=1;endArrow=none;endFill=0;" edge="1" parent="1" target="sVag5zWtKBU5LrryErx4-6">
          <mxGeometry relative="1" as="geometry">
            <mxPoint x="750" y="275" as="sourcePoint" />
          </mxGeometry>
        </mxCell>
        <mxCell id="sVag5zWtKBU5LrryErx4-21" value="Gerir Requisições" style="ellipse;whiteSpace=wrap;html=1;" vertex="1" parent="1">
          <mxGeometry x="550" y="135" width="140" height="70" as="geometry" />
        </mxCell>
        <mxCell id="sVag5zWtKBU5LrryErx4-22" value="Gerir Livros" style="ellipse;whiteSpace=wrap;html=1;" vertex="1" parent="1">
          <mxGeometry x="550" y="375" width="140" height="70" as="geometry" />
        </mxCell>
        <mxCell id="sVag5zWtKBU5LrryErx4-31" style="edgeStyle=orthogonalEdgeStyle;rounded=0;orthogonalLoop=1;jettySize=auto;html=1;endArrow=block;endFill=0;" edge="1" parent="1" source="sVag5zWtKBU5LrryErx4-30" target="sVag5zWtKBU5LrryErx4-4">
          <mxGeometry relative="1" as="geometry" />
        </mxCell>
        <mxCell id="sVag5zWtKBU5LrryErx4-30" value="Cliente&lt;br&gt;(com sessão)" style="shape=umlActor;verticalLabelPosition=bottom;verticalAlign=top;html=1;" vertex="1" parent="1">
          <mxGeometry x="60" y="555" width="30" height="60" as="geometry" />
        </mxCell>
      </root>
    </mxGraphModel>
  </diagram>
</mxfile>
